<?xml version="1.0" standalone="no"?>
<!DOCTYPE svg PUBLIC "-//W3C//DTD SVG 20010904//EN"
 "http://www.w3.org/TR/2001/REC-SVG-20010904/DTD/svg10.dtd">
<svg version="1.0" xmlns="http://www.w3.org/2000/svg"
 width="882.000000pt" height="355.000000pt" viewBox="0 0 882.000000 355.000000"
 preserveAspectRatio="xMidYMid meet">

<g transform="translate(0.000000,355.000000) scale(0.100000,-0.100000)"
fill="#FFFFFF" stroke="none">
<path d="M0 1775 l0 -1775 4410 0 4410 0 0 1775 0 1775 -4410 0 -4410 0 0
-1775z m4600 1545 c592 -89 1355 -319 1973 -594 92 -42 65 -38 -40 5 -645 263
-1432 487 -1984 565 -126 18 -128 18 -288 -5 -333 -46 -815 -161 -1240 -295
-63 -20 -116 -34 -118 -32 -6 6 297 105 512 166 298 86 607 155 860 194 125
19 170 19 325 -4z m-19 -100 c641 -100 1528 -375 2067 -642 99 -50 102 -52
102 -84 0 -19 -3 -34 -6 -34 -3 0 -61 24 -128 54 -563 249 -1362 493 -1929
591 -217 37 -266 39 -402 20 -458 -64 -1169 -259 -1750 -480 -254 -97 -235
-92 -235 -57 0 26 7 32 77 66 180 88 609 247 908 336 338 101 681 182 945 225
182 29 193 29 351 5z m71 -320 c421 -24 618 -78 745 -207 80 -81 85 -106 7
-34 -104 96 -191 131 -409 167 -132 22 -825 32 -1017 15 -239 -22 -380 -57
-470 -117 -73 -49 -78 -51 -32 -7 23 21 63 50 90 65 176 95 620 144 1086 118z
m228 -145 c271 -25 356 -58 471 -184 70 -76 179 -234 179 -259 -1 -13 -6 -10
-23 11 -13 15 -26 27 -30 27 -4 0 -7 -20 -7 -46 0 -42 -2 -46 -34 -59 -18 -8
-64 -22 -102 -31 -55 -13 -95 -34 -194 -99 -69 -46 -152 -107 -185 -137 -33
-29 -69 -60 -79 -68 -61 -47 73 116 157 192 29 25 49 49 45 53 -3 3 -77 -1
-165 -11 -219 -24 -753 -25 -973 -1 -85 9 -164 17 -174 17 -14 0 8 -28 75 -97
89 -92 148 -163 135 -163 -4 0 -33 24 -65 54 -131 121 -302 234 -386 256 l-60
15 -5 115 -5 115 -60 -63 c-33 -35 -64 -70 -68 -78 -4 -8 -13 -14 -18 -14 -30
0 130 228 217 309 68 64 125 95 217 116 220 51 749 65 1137 30z m1109 -321
c51 -11 35 -22 -41 -29 -40 -4 -81 -11 -90 -16 -11 -6 -18 -6 -18 -1 0 16 25
31 66 41 52 12 47 12 83 5z m-9 -172 c-88 -33 -90 -42 -15 -79 l55 -27 0 -83
0 -82 30 5 c25 6 31 3 40 -20 13 -36 13 -159 -1 -248 -13 -81 0 -192 31 -283
10 -30 15 -57 10 -60 -9 -6 -73 77 -92 121 -11 25 -14 7 -18 -153 -5 -177 -6
-182 -30 -208 -49 -53 -84 -63 -320 -95 -173 -23 -722 -80 -770 -80 l-31 0 29
43 30 42 423 52 c387 48 428 55 484 82 64 30 145 94 145 115 0 15 -82 78 -132
102 -36 17 -42 17 -170 -5 -730 -123 -1166 -154 -1631 -116 -243 20 -519 55
-779 100 -232 39 -252 41 -290 21 l-28 -15 0 63 0 63 -50 27 c-27 15 -52 31
-55 36 -12 19 -21 10 -32 -32 -13 -47 -87 -168 -103 -168 -13 0 -13 -3 10 64
29 85 41 199 30 276 -12 84 -13 222 0 254 10 28 22 28 143 1 l57 -12 0 108 0
109 -42 -6 c-24 -4 -41 -4 -38 -1 18 19 83 56 91 51 5 -3 38 4 72 15 l63 21
79 -20 c116 -30 172 -68 299 -205 212 -229 328 -329 423 -365 87 -32 220 -44
518 -44 282 0 438 12 516 39 80 28 168 101 364 300 217 221 260 252 378 280
64 15 71 14 130 -4 62 -19 62 -19 96 1 32 20 80 36 111 36 8 0 -5 -7 -30 -16z
m725 -548 c-60 -233 -144 -554 -151 -577 -4 -13 -12 -16 -32 -11 -15 4 -31 10
-35 14 -7 6 112 457 230 874 l28 99 3 -111 c2 -103 0 -121 -43 -288z m-4351
-548 c5 -21 2 -24 -24 -28 l-30 -5 0 101 1 101 23 -72 c13 -40 26 -84 30 -97z
m2459 -73 l-61 -108 -78 -12 c-44 -6 -92 -12 -109 -11 l-30 0 35 10 c152 42
139 34 171 101 39 83 38 91 -8 83 -88 -14 -384 -18 -521 -7 -79 7 -146 10
-148 8 -3 -3 9 -37 27 -76 28 -64 35 -72 68 -80 20 -6 61 -17 91 -25 l55 -16
-50 5 c-27 2 -75 7 -106 10 l-57 7 -41 72 c-30 54 -41 83 -41 115 l0 43 253
-6 c138 -3 329 -3 422 2 94 4 174 4 179 0 5 -4 -18 -56 -51 -115z m-1773 78
c41 -13 207 -37 455 -66 215 -25 398 -48 407 -51 20 -6 63 -72 54 -81 -11 -11
-848 80 -966 105 -35 8 -35 8 -38 66 -2 45 0 57 10 53 7 -3 42 -15 78 -26z
m-299 -62 c46 -59 120 -103 230 -137 l94 -29 -265 -6 c-648 -16 -975 -19 -965
-9 11 12 269 82 520 142 294 70 330 78 342 79 6 1 26 -18 44 -40z m3554 11
c142 -31 731 -179 758 -190 22 -10 -661 -4 -1043 9 l-185 6 69 23 c107 36 156
65 215 126 34 36 59 55 70 52 9 -2 61 -14 116 -26z m-1080 -544 c57 -24 67
-71 41 -191 -25 -115 -66 -155 -159 -155 -107 0 -135 41 -113 166 8 44 19 90
24 104 29 73 127 109 207 76z m-4670 -28 c-10 -48 -11 -48 -70 -48 -62 0 -57
9 -81 -135 -20 -121 -26 -135 -62 -135 -51 0 -52 5 -28 143 l23 127 -53 0
c-29 0 -55 4 -58 9 -3 5 -3 23 0 40 l7 31 164 0 165 0 -7 -32z m161 -5 c-4
-21 -9 -53 -13 -70 l-5 -33 45 0 45 0 7 48 c13 93 13 92 61 92 24 0 44 -3 44
-7 0 -23 -52 -302 -60 -320 -7 -16 -18 -23 -37 -23 -46 0 -52 10 -43 60 14 70
14 70 -34 70 l-44 0 -7 -52 c-9 -63 -19 -78 -54 -78 -55 0 -56 -15 4 318 6 31
8 32 52 32 l45 0 -6 -37z m371 24 c-12 -31 -39 -227 -34 -241 9 -22 64 -21 76
2 5 9 16 58 25 107 29 160 22 145 72 145 24 0 44 -2 44 -5 0 -36 -46 -248 -59
-274 -26 -52 -73 -73 -150 -69 -105 6 -118 42 -85 232 21 123 17 116 70 116
34 0 45 -3 41 -13z m401 -65 c13 -40 27 -71 30 -68 3 3 10 36 16 73 l11 68 49
3 c42 3 47 1 42 -15 -3 -10 -17 -85 -31 -168 -15 -82 -32 -153 -38 -157 -15
-10 -59 -10 -73 0 -7 4 -21 40 -33 80 -12 39 -25 72 -30 72 -4 0 -12 -32 -19
-71 -6 -40 -17 -76 -24 -80 -18 -12 -66 -11 -73 1 -5 8 37 276 51 323 5 15 14
17 52 15 l45 -3 25 -73z m467 55 c32 -27 34 -57 15 -166 -21 -123 -72 -160
-217 -161 -34 0 -65 5 -68 10 -6 9 37 287 50 328 3 8 32 12 99 12 84 0 98 -3
121 -23z m378 -9 c-8 -44 -16 -48 -94 -48 -60 0 -67 -2 -72 -22 -9 -33 -1 -38
59 -38 l54 0 0 -35 c0 -38 -8 -43 -90 -47 -37 -3 -45 -6 -45 -23 0 -18 8 -20
74 -23 l73 -3 -6 -31 c-3 -18 -12 -36 -19 -40 -6 -4 -58 -8 -115 -8 -84 0
-104 3 -109 16 -3 9 7 87 22 175 l29 159 123 0 123 0 -7 -32z m306 16 c21 -15
23 -22 18 -77 -4 -39 -13 -70 -27 -90 -22 -29 -22 -30 -5 -87 10 -32 14 -63
11 -69 -8 -12 -65 -15 -82 -3 -6 4 -19 33 -28 65 -21 72 -42 76 -52 10 -10
-70 -19 -83 -60 -83 -20 0 -37 6 -40 14 -5 12 39 289 51 324 7 20 184 16 214
-4z m531 2 c0 -8 -4 -26 -10 -40 -8 -23 -15 -25 -82 -28 -71 -3 -73 -4 -76
-30 -3 -28 -3 -28 57 -28 66 0 70 -5 51 -54 -9 -24 -14 -26 -69 -26 l-60 0 -6
-37 c-13 -77 -19 -88 -55 -91 -18 -2 -36 0 -41 5 -8 8 9 128 42 291 l10 52
120 0 c97 0 119 -3 119 -14z m167 -13 c-3 -16 -15 -89 -28 -163 -12 -74 -27
-141 -32 -147 -14 -19 -66 -16 -74 3 -3 9 7 87 22 175 l28 159 45 0 c43 0 44
-1 39 -27z m193 -18 c7 -25 16 -48 21 -51 4 -2 25 18 46 46 36 48 39 50 85 50
26 0 48 -2 48 -5 0 -3 -27 -40 -60 -82 -33 -41 -60 -82 -60 -90 0 -7 14 -43
30 -80 39 -86 39 -93 -7 -93 -49 0 -56 6 -82 64 l-21 49 -31 -44 c-17 -24 -38
-50 -47 -56 -18 -15 -78 -17 -86 -4 -3 5 21 45 53 90 l59 81 -29 76 c-16 41
-29 79 -29 85 0 5 22 9 49 9 l48 0 13 -45z m630 -131 l0 -175 -42 3 c-42 3
-43 4 -46 41 -3 37 -4 38 -39 35 -32 -3 -38 -8 -48 -38 -10 -29 -17 -36 -44
-38 -70 -7 -71 -15 51 321 10 26 12 27 89 27 l79 0 0 -176z m220 159 c0 -10
-7 -63 -17 -118 -19 -117 -16 -135 26 -135 36 0 44 13 60 100 6 36 16 89 22
118 l10 52 46 0 c42 0 45 -2 40 -22 -3 -13 -13 -68 -23 -123 -26 -157 -65
-205 -167 -205 -66 0 -96 15 -112 54 -13 31 -12 47 6 153 11 65 22 124 24 131
3 7 21 12 45 12 31 0 40 -4 40 -17z m580 -7 c0 -49 -9 -56 -70 -56 l-57 0 -22
-127 c-12 -70 -25 -131 -27 -135 -9 -14 -74 -9 -80 6 -3 8 4 65 15 127 12 62
21 117 21 121 0 4 -24 8 -52 10 -47 3 -53 6 -56 26 -7 51 -4 52 168 52 l160 0
0 -24z m665 -23 c-3 -27 -9 -58 -12 -70 -5 -21 -2 -23 40 -23 l45 0 12 70 12
70 44 0 c26 0 44 -5 44 -11 0 -33 -54 -316 -63 -326 -10 -14 -45 -17 -70 -7
-11 4 -12 14 -6 47 15 77 14 79 -33 75 -42 -3 -43 -3 -53 -53 -13 -63 -21 -75
-50 -75 -54 0 -54 -1 -24 173 16 89 29 165 29 170 0 4 21 7 46 7 l46 0 -7 -47z
m495 -123 l0 -170 -25 -6 c-14 -3 -36 -3 -50 0 -21 5 -25 12 -25 42 0 35 -1
35 -37 32 -32 -3 -38 -7 -45 -35 -9 -36 -39 -50 -83 -39 l-24 6 46 128 c25 70
52 146 60 170 l15 42 84 0 84 0 0 -170z m226 153 c-3 -10 -17 -85 -31 -168
-15 -82 -32 -153 -38 -157 -20 -13 -67 -9 -73 6 -4 12 39 284 51 324 3 7 22
12 50 12 39 0 46 -3 41 -17z m184 -10 c-1 -16 -9 -73 -20 -128 -10 -55 -16
-103 -13 -107 2 -5 31 -8 65 -8 l61 0 -7 -32 c-3 -18 -12 -36 -19 -40 -6 -4
-54 -8 -105 -8 -70 0 -94 3 -98 14 -4 12 39 284 51 324 3 7 21 12 45 12 37 0
40 -2 40 -27z m580 7 c12 -12 20 -33 20 -52 -1 -40 -25 -111 -40 -116 -14 -5
-12 -43 5 -93 20 -55 14 -69 -27 -69 -46 0 -53 7 -74 73 -18 59 -40 74 -48 35
-22 -107 -20 -103 -54 -106 -61 -6 -61 -3 -29 181 l30 167 99 0 c85 0 101 -3
118 -20z m370 -8 c0 -42 -17 -52 -91 -52 -59 0 -68 -3 -74 -20 -10 -32 3 -40
61 -40 48 0 54 -2 54 -21 0 -47 -17 -59 -81 -59 -57 0 -60 -1 -57 -22 3 -21 9
-23 75 -26 l72 -3 -6 -32 c-3 -18 -11 -35 -17 -39 -13 -9 -197 -11 -219 -2
-12 4 -10 30 14 167 16 89 29 165 29 170 0 4 54 7 120 7 l120 0 0 -28z m312
11 c24 -29 28 -50 18 -106 -15 -77 -51 -109 -129 -115 l-61 -4 -5 -37 c-9 -53
-18 -66 -54 -69 -22 -2 -33 2 -37 13 -4 9 6 88 21 176 l29 159 101 0 c85 0
104 -3 117 -17z m316 -155 l-3 -173 -40 0 c-39 0 -40 1 -43 38 -3 36 -4 37
-42 37 -33 0 -39 -3 -45 -27 -4 -16 -11 -34 -17 -40 -12 -15 -74 -17 -83 -3
-5 8 94 303 112 333 2 4 40 7 84 7 l79 0 -2 -172z m229 150 c-3 -13 -15 -81
-27 -153 -27 -162 -32 -175 -67 -175 -58 0 -58 -16 2 318 6 31 8 32 52 32 42
0 45 -2 40 -22z m322 -2 c20 -22 22 -31 16 -76 -4 -31 -16 -62 -31 -79 l-24
-29 20 -63 c10 -35 16 -67 11 -72 -5 -5 -26 -7 -47 -5 -38 3 -40 5 -60 63 -29
83 -49 83 -60 3 l-9 -63 -39 -3 c-21 -2 -42 0 -47 5 -5 5 3 69 16 143 13 74
27 150 30 168 l6 32 98 0 c90 0 99 -2 120 -24z"/>
<path d="M2844 1875 c-9 -22 22 -161 44 -198 44 -76 185 -150 403 -212 314
-89 1040 -141 1489 -105 197 15 484 47 600 66 259 43 527 161 574 253 21 40
50 191 39 202 -11 11 -252 -49 -358 -90 -108 -42 -140 -63 -178 -118 -110
-160 -162 -183 -504 -223 -260 -30 -494 -43 -643 -35 -185 9 -420 32 -575 55
-200 31 -247 58 -358 210 -45 61 -139 107 -325 158 -201 55 -201 55 -208 37z
m217 -111 c68 -20 84 -33 66 -57 -12 -17 -15 -16 -62 8 -60 32 -98 65 -74 65
8 0 40 -7 70 -16z m2789 1 c-12 -15 -117 -77 -152 -90 -24 -9 -45 32 -26 51
13 13 138 52 172 53 15 1 16 -1 6 -14z"/>
<path d="M5106 495 c-17 -18 -39 -113 -34 -152 2 -23 8 -29 35 -31 39 -4 46 8
63 101 10 53 10 70 0 82 -16 19 -44 19 -64 0z"/>
<path d="M1788 413 c-9 -49 -12 -92 -8 -97 4 -4 22 -5 38 -1 32 7 43 27 57
108 9 57 0 77 -39 77 l-33 0 -15 -87z"/>
<path d="M2490 481 c0 -11 -3 -26 -6 -35 -5 -12 1 -16 24 -16 36 0 56 21 47
50 -9 28 -65 29 -65 1z"/>
<path d="M4045 490 c-5 -8 -35 -100 -35 -108 0 -2 12 -2 28 0 26 3 27 6 30 61
3 52 -7 73 -23 47z"/>
<path d="M5997 493 c-3 -5 -12 -32 -20 -60 l-16 -53 30 0 c29 0 29 0 29 60 0
53 -10 75 -23 53z"/>
<path d="M6956 478 c-11 -43 -8 -49 27 -46 28 3 32 7 35 36 3 30 1 32 -26 32
-22 0 -31 -6 -36 -22z"/>
<path d="M7636 484 c-3 -9 -6 -27 -6 -40 0 -20 5 -24 28 -24 36 0 52 16 52 52
0 25 -3 28 -34 28 -22 0 -36 -6 -40 -16z"/>
<path d="M7975 448 c-19 -67 -19 -68 9 -68 21 0 24 6 29 51 4 29 4 56 1 60
-12 20 -24 6 -39 -43z"/>
<path d="M8507 494 c-4 -4 -7 -20 -7 -36 0 -27 3 -29 33 -26 28 3 32 6 32 33
0 25 -5 31 -25 33 -14 2 -29 0 -33 -4z"/>
</g>
</svg>
